<svg width="33" height="39" viewBox="0 0 33 39" fill="none" xmlns="http://www.w3.org/2000/svg">
<path fill-rule="evenodd" clip-rule="evenodd" d="M10.9241 1.5C10.9241 0.671573 11.5864 0 12.4034 0H20.5966C21.4136 0 22.0759 0.671573 22.0759 1.5C22.0759 2.32843 21.4136 3 20.5966 3H12.4034C11.5864 3 10.9241 2.32843 10.9241 1.5ZM16.5 8.53846C9.0213 8.53846 2.95862 14.6859 2.95862 22.2692C2.95862 29.8525 9.0213 36 16.5 36C23.9787 36 30.0414 29.8525 30.0414 22.2692C30.0414 14.6859 23.9787 8.53846 16.5 8.53846ZM0 22.2692C0 13.0291 7.3873 5.53846 16.5 5.53846C25.6127 5.53846 33 13.0291 33 22.2692C33 31.5094 25.6127 39 16.5 39C7.3873 39 0 31.5094 0 22.2692ZM24.3053 14.354C24.883 14.9398 24.883 15.8895 24.3053 16.4753L17.546 23.3292C16.9683 23.915 16.0317 23.915 15.454 23.3292C14.8763 22.7434 14.8763 21.7936 15.454 21.2079C15.454 21.2079 19.5736 17.0306 22.2133 14.354C22.791 13.7682 23.7276 13.7682 24.3053 14.354Z" fill="#00875F"/>
</svg>
