<svg width="194" height="39" viewBox="0 0 194 39" fill="none" xmlns="http://www.w3.org/2000/svg">
<path fill-rule="evenodd" clip-rule="evenodd" d="M10.9241 1.5C10.9241 0.671573 11.5864 0 12.4034 0H20.5966C21.4136 0 22.0759 0.671573 22.0759 1.5C22.0759 2.32843 21.4136 3 20.5966 3H12.4034C11.5864 3 10.9241 2.32843 10.9241 1.5ZM16.5 8.53846C9.0213 8.53846 2.95862 14.6859 2.95862 22.2692C2.95862 29.8525 9.0213 36 16.5 36C23.9787 36 30.0414 29.8525 30.0414 22.2692C30.0414 14.6859 23.9787 8.53846 16.5 8.53846ZM0 22.2692C0 13.0291 7.3873 5.53846 16.5 5.53846C25.6127 5.53846 33 13.0291 33 22.2692C33 31.5094 25.6127 39 16.5 39C7.3873 39 0 31.5094 0 22.2692ZM24.3053 14.354C24.883 14.9398 24.883 15.8895 24.3053 16.4753L17.546 23.3292C16.9683 23.915 16.0317 23.915 15.454 23.3292C14.8763 22.7434 14.8763 21.7936 15.454 21.2079C15.454 21.2079 19.5736 17.0306 22.2133 14.354C22.791 13.7682 23.7276 13.7682 24.3053 14.354Z" fill="#00875F"/>
<path d="M46.6413 14.0909V33H42.6435V14.0909H46.6413ZM56.2459 38.6136C54.9718 38.6136 53.8792 38.4382 52.9682 38.0874C52.0634 37.7427 51.3432 37.2718 50.8077 36.6747C50.2722 36.0777 49.9244 35.4067 49.7644 34.6619L53.4022 34.1726C53.513 34.4557 53.6884 34.7204 53.9284 34.9666C54.1685 35.2128 54.4855 35.4098 54.8794 35.5575C55.2795 35.7114 55.7658 35.7884 56.3382 35.7884C57.1938 35.7884 57.8986 35.5791 58.4526 35.1605C59.0127 34.7481 59.2928 34.0556 59.2928 33.0831V30.4886H59.1266C58.9543 30.8826 58.6957 31.255 58.351 31.6058C58.0063 31.9567 57.5632 32.2429 57.0215 32.4645C56.4798 32.6861 55.8335 32.7969 55.0826 32.7969C54.0177 32.7969 53.0482 32.5507 52.1742 32.0582C51.3063 31.5597 50.6138 30.7995 50.0968 29.7777C49.5859 28.7498 49.3304 27.451 49.3304 25.8814C49.3304 24.2749 49.592 22.933 50.1152 21.8558C50.6384 20.7786 51.334 19.9723 52.2019 19.4368C53.0759 18.9013 54.0331 18.6335 55.0733 18.6335C55.8674 18.6335 56.5321 18.7689 57.0676 19.0398C57.6032 19.3045 58.034 19.6368 58.3603 20.0369C58.6926 20.4309 58.9481 20.8187 59.1266 21.2003H59.2743V18.8182H63.1799V33.1385C63.1799 34.3449 62.8844 35.3544 62.2935 36.1669C61.7026 36.9794 60.8839 37.5888 59.8375 37.995C58.7973 38.4074 57.6001 38.6136 56.2459 38.6136ZM56.329 29.8423C56.963 29.8423 57.4985 29.6854 57.9355 29.3714C58.3787 29.0514 58.7173 28.5959 58.9512 28.005C59.1912 27.4079 59.3113 26.6939 59.3113 25.8629C59.3113 25.032 59.1943 24.3118 58.9604 23.7024C58.7265 23.0869 58.388 22.6098 57.9448 22.2713C57.5016 21.9328 56.963 21.7635 56.329 21.7635C55.6827 21.7635 55.138 21.9389 54.6948 22.2898C54.2516 22.6345 53.9161 23.1146 53.6884 23.7301C53.4606 24.3456 53.3468 25.0566 53.3468 25.8629C53.3468 26.6816 53.4606 27.3894 53.6884 27.9865C53.9223 28.5774 54.2578 29.036 54.6948 29.3622C55.138 29.6823 55.6827 29.8423 56.329 29.8423ZM70.2431 24.8011V33H66.3098V18.8182H70.0584V21.3203H70.2246C70.5385 20.4955 71.0648 19.843 71.8034 19.3629C72.5421 18.8767 73.4377 18.6335 74.4902 18.6335C75.4751 18.6335 76.3337 18.849 77.0662 19.2798C77.7987 19.7107 78.3681 20.3262 78.7743 21.1264C79.1806 21.9205 79.3837 22.8684 79.3837 23.9702V33H75.4505V24.6719C75.4566 23.804 75.235 23.1269 74.7857 22.6406C74.3364 22.1482 73.7177 21.902 72.9299 21.902C72.4005 21.902 71.9327 22.0159 71.5265 22.2436C71.1264 22.4714 70.8124 22.8037 70.5847 23.2408C70.3631 23.6716 70.2492 24.1918 70.2431 24.8011ZM82.4837 33V18.8182H86.4169V33H82.4837ZM84.4595 16.9901C83.8748 16.9901 83.3731 16.7962 82.9545 16.4084C82.5421 16.0144 82.3359 15.5436 82.3359 14.9957C82.3359 14.4541 82.5421 13.9893 82.9545 13.6016C83.3731 13.2076 83.8748 13.0107 84.4595 13.0107C85.0443 13.0107 85.5429 13.2076 85.9553 13.6016C86.3738 13.9893 86.5831 14.4541 86.5831 14.9957C86.5831 15.5436 86.3738 16.0144 85.9553 16.4084C85.5429 16.7962 85.0443 16.9901 84.4595 16.9901ZM97.111 18.8182V21.7727H88.5705V18.8182H97.111ZM90.5094 15.4205H94.4426V28.642C94.4426 29.0052 94.498 29.2884 94.6088 29.4915C94.7196 29.6884 94.8735 29.8269 95.0705 29.907C95.2736 29.987 95.5075 30.027 95.7722 30.027C95.9569 30.027 96.1415 30.0116 96.3262 29.9808C96.5108 29.9439 96.6524 29.9162 96.7509 29.8977L97.3695 32.8246C97.1725 32.8861 96.8955 32.9569 96.5385 33.0369C96.1815 33.1231 95.7476 33.1754 95.2367 33.1939C94.2888 33.2308 93.4578 33.1046 92.7438 32.8153C92.0359 32.526 91.485 32.0767 91.0911 31.4673C90.6971 30.858 90.5033 30.0885 90.5094 29.1591V15.4205ZM105.984 33.277C104.525 33.277 103.269 32.9815 102.217 32.3906C101.17 31.7936 100.364 30.9503 99.7978 29.8608C99.2315 28.7652 98.9483 27.4695 98.9483 25.9737C98.9483 24.5149 99.2315 23.2346 99.7978 22.1328C100.364 21.031 101.161 20.1723 102.189 19.5568C103.223 18.9413 104.436 18.6335 105.827 18.6335C106.762 18.6335 107.633 18.7843 108.44 19.0859C109.252 19.3814 109.96 19.8277 110.563 20.4247C111.173 21.0218 111.647 21.7727 111.985 22.6776C112.324 23.5762 112.493 24.6288 112.493 25.8352V26.9155H100.518V24.478H108.791C108.791 23.9117 108.668 23.41 108.421 22.973C108.175 22.536 107.834 22.1944 107.396 21.9482C106.966 21.6958 106.464 21.5696 105.892 21.5696C105.294 21.5696 104.765 21.7081 104.303 21.9851C103.848 22.2559 103.491 22.6222 103.232 23.0838C102.974 23.5393 102.842 24.0471 102.835 24.6072V26.9247C102.835 27.6264 102.965 28.2327 103.223 28.7436C103.488 29.2545 103.86 29.6484 104.34 29.9254C104.82 30.2024 105.39 30.3409 106.048 30.3409C106.485 30.3409 106.886 30.2794 107.249 30.1562C107.612 30.0331 107.923 29.8485 108.181 29.6023C108.44 29.3561 108.637 29.0545 108.772 28.6974L112.41 28.9375C112.225 29.8116 111.847 30.5748 111.274 31.2273C110.708 31.8736 109.976 32.3783 109.077 32.7415C108.184 33.0985 107.153 33.277 105.984 33.277Z" fill="#C4C4CC"/>
<path d="M120.431 17.3871V14.0909H135.961V17.3871H130.172V33H126.22V17.3871H120.431ZM138.445 33V18.8182H142.378V33H138.445ZM140.42 16.9901C139.836 16.9901 139.334 16.7962 138.915 16.4084C138.503 16.0144 138.297 15.5436 138.297 14.9957C138.297 14.4541 138.503 13.9893 138.915 13.6016C139.334 13.2076 139.836 13.0107 140.42 13.0107C141.005 13.0107 141.504 13.2076 141.916 13.6016C142.335 13.9893 142.544 14.4541 142.544 14.9957C142.544 15.5436 142.335 16.0144 141.916 16.4084C141.504 16.7962 141.005 16.9901 140.42 16.9901ZM145.529 33V18.8182H149.277V21.3203H149.443C149.739 20.4893 150.231 19.8338 150.921 19.3537C151.61 18.8736 152.435 18.6335 153.395 18.6335C154.368 18.6335 155.195 18.8767 155.879 19.3629C156.562 19.843 157.017 20.4955 157.245 21.3203H157.393C157.682 20.5078 158.205 19.8584 158.963 19.3722C159.726 18.8797 160.628 18.6335 161.668 18.6335C162.991 18.6335 164.065 19.0552 164.89 19.8984C165.721 20.7356 166.137 21.9235 166.137 23.4624V33H162.213V24.2379C162.213 23.45 162.003 22.8591 161.585 22.4652C161.166 22.0713 160.643 21.8743 160.015 21.8743C159.301 21.8743 158.744 22.102 158.344 22.5575C157.944 23.0069 157.744 23.6009 157.744 24.3395V33H153.931V24.1548C153.931 23.4593 153.731 22.9053 153.33 22.4929C152.936 22.0805 152.416 21.8743 151.77 21.8743C151.333 21.8743 150.939 21.9851 150.588 22.2067C150.244 22.4221 149.97 22.7268 149.767 23.1207C149.563 23.5085 149.462 23.964 149.462 24.4872V33H145.529ZM175.706 33.277C174.248 33.277 172.992 32.9815 171.939 32.3906C170.893 31.7936 170.087 30.9503 169.52 29.8608C168.954 28.7652 168.671 27.4695 168.671 25.9737C168.671 24.5149 168.954 23.2346 169.52 22.1328C170.087 21.031 170.884 20.1723 171.912 19.5568C172.946 18.9413 174.158 18.6335 175.55 18.6335C176.485 18.6335 177.356 18.7843 178.162 19.0859C178.975 19.3814 179.683 19.8277 180.286 20.4247C180.895 21.0218 181.369 21.7727 181.708 22.6776C182.046 23.5762 182.216 24.6288 182.216 25.8352V26.9155H170.241V24.478H178.513C178.513 23.9117 178.39 23.41 178.144 22.973C177.898 22.536 177.556 22.1944 177.119 21.9482C176.688 21.6958 176.187 21.5696 175.614 21.5696C175.017 21.5696 174.488 21.7081 174.026 21.9851C173.571 22.2559 173.214 22.6222 172.955 23.0838C172.697 23.5393 172.564 24.0471 172.558 24.6072V26.9247C172.558 27.6264 172.687 28.2327 172.946 28.7436C173.211 29.2545 173.583 29.6484 174.063 29.9254C174.543 30.2024 175.113 30.3409 175.771 30.3409C176.208 30.3409 176.608 30.2794 176.971 30.1562C177.335 30.0331 177.645 29.8485 177.904 29.6023C178.162 29.3561 178.359 29.0545 178.495 28.6974L182.133 28.9375C181.948 29.8116 181.569 30.5748 180.997 31.2273C180.431 31.8736 179.698 32.3783 178.8 32.7415C177.907 33.0985 176.876 33.277 175.706 33.277ZM184.782 33V18.8182H188.596V21.2926H188.743C189.002 20.4124 189.436 19.7476 190.045 19.2983C190.655 18.8428 191.356 18.6151 192.15 18.6151C192.347 18.6151 192.56 18.6274 192.787 18.652C193.015 18.6766 193.215 18.7105 193.388 18.7536V22.2436C193.203 22.1882 192.948 22.139 192.621 22.0959C192.295 22.0528 191.997 22.0312 191.726 22.0312C191.147 22.0312 190.63 22.1574 190.175 22.4098C189.725 22.656 189.368 23.0007 189.104 23.4439C188.845 23.8871 188.716 24.398 188.716 24.9766V33H184.782Z" fill="#00875F"/>
</svg>
